<svg version="1.2" xmlns="http://www.w3.org/2000/svg" viewBox="0 0 506 360" width="506" height="360"><style>.a{fill:none;stroke:#fff;stroke-linecap:round;stroke-linejoin:round;stroke-width:20}.b{fill:#fff}</style><path class="a" d="m48.2 349.6c45.8 0 153.3-94.2 153.3-94.2 0 0 31.1 6.6 51.5 6.6 20.3 0 51.5-6.6 51.5-6.6 0 0 107.5 94.2 153.2 94.2 96 0-17.2-263.9-45.7-277.7-107.3-51.8-108-61.5-159-61.5-50.9 0-51.7 9.7-159 61.5-28.5 13.8-141.8 277.7-45.8 277.7z"/><path class="b" d="m303 203c-13.8 0-25-11.2-25-25 0-13.8 11.2-25 25-25 13.8 0 25 11.2 25 25 0 13.8-11.2 25-25 25z"/><path class="b" d="m203 203c-13.8 0-25-11.2-25-25 0-13.8 11.2-25 25-25 13.8 0 25 11.2 25 25 0 13.8-11.2 25-25 25z"/><path class="a" d="m201.5 116c0 0 0-44.1 51.5-44.1 51.5 0 51.5 44.1 51.5 44.1"/></svg>