<svg version="1.2" xmlns="http://www.w3.org/2000/svg" viewBox="0 0 1078 1034" width="1078" height="1034"><style>.a{fill:#04d46c;stroke:#000;stroke-miterlimit:100;stroke-width:75}</style><path class="a" d="m585.8 71.4l89 255.9c6.8 19.6 25.1 32.9 45.9 33.3l270.9 5.6c47 0.9 66.4 60.7 28.9 89.2l-215.9 163.7c-16.5 12.5-23.5 34-17.5 53.9l78.5 259.3c13.6 45.1-37.3 82.1-75.9 55.2l-222.4-154.8c-17.1-11.9-39.7-11.9-56.7 0l-222.5 154.8c-38.6 26.9-89.4-10.1-75.8-55.2l78.4-259.3c6.1-19.9-0.9-41.4-17.5-53.9l-215.9-163.7c-37.5-28.5-18.1-88.3 29-89.2l270.9-5.6c20.7-0.4 39-13.7 45.9-33.3l88.9-255.9c15.5-44.5 78.4-44.5 93.8 0z"/></svg>